<?xml version="1.0" encoding="utf-8"?>
<!-- Generator: Adobe Illustrator 26.2.1, SVG Export Plug-In . SVG Version: 6.00 Build 0)  -->
<svg version="1.1" id="Layer_1" xmlns="http://www.w3.org/2000/svg" xmlns:xlink="http://www.w3.org/1999/xlink" x="0px" y="0px"
	 viewBox="0 0 150 150" style="enable-background:new 0 0 150 150;" xml:space="preserve">
<style type="text/css">
	.st0{fill:#E5E5E5;}
	.st1{fill:#DE0023;}
	.st2{fill:#FFFFFF;}
</style>
<g>
	<path class="st0" d="M75,0.4C33.6,0.4,0,33.8,0,75c0,41.2,33.6,74.6,75,74.6c41.4,0,75-33.4,75-74.6C150,33.8,116.4,0.4,75,0.4z
		 M75,144.8c-38.7,0-70.1-31.2-70.1-69.8C4.9,36.5,36.3,5.2,75,5.2c38.7,0,70.1,31.2,70.1,69.8C145.1,113.5,113.7,144.8,75,144.8z"
		/>
	<path class="st1" d="M75,5.2C36.3,5.2,4.9,36.5,4.9,75c0,38.5,31.4,69.8,70.1,69.8c38.7,0,70.1-31.2,70.1-69.8
		C145.1,36.5,113.7,5.2,75,5.2z M105.3,83.6c-1,0-1.9,0.4-2.5,1h-0.3c-0.7-0.6-1.5-1-2.5-1c-0.5,0-0.9,0.1-1.4,0.3
		c-0.4-0.4-0.6-0.9-0.6-1.5c0-1.2,1-2.3,2.2-2.3h2.1h5.9l2.1,0c1.2,0,2.2,1,2.2,2.3c0,0.6-0.2,1.1-0.6,1.5c-0.4-0.2-0.9-0.3-1.4-0.3
		c-1,0-1.9,0.4-2.5,1h-0.3C107.2,84,106.3,83.6,105.3,83.6z M107.6,87.3V93c-0.7,0.1-1.5,0.1-2.2,0.1c-0.8,0-1.5-0.1-2.3-0.2v-5.7
		c0-1.2,1-2.2,2.3-2.2S107.6,86,107.6,87.3z M96.9,78.3v1.4v1.1c-0.2,0.5-0.3,1-0.3,1.5c0,0.2,0,0.4,0,0.6c-0.2,0.3-0.5,0.6-0.8,0.8
		c-0.4-0.1-0.7-0.2-1.1-0.2c-0.4,0-0.8,0.1-1.1,0.2c-0.7-0.4-1.1-1.1-1.1-1.9v-2.1v-5.9v-2.1c0-0.8,0.4-1.4,0.9-1.8
		c0.4,0.2,0.8,0.2,1.3,0.2c0.5,0,0.9-0.1,1.3-0.2c0.3,0.2,0.5,0.5,0.7,0.7c0,0.2,0,0.4,0,0.6c0,0.5,0.1,1.1,0.3,1.5v1.1v1.4
		c-0.2,0.5-0.3,1-0.3,1.5C96.6,77.3,96.7,77.8,96.9,78.3z M96.9,87.3v3.6c-1.7-1-3.2-2.2-4.5-3.7c0.1-1.2,1-2.1,2.2-2.1
		C95.9,85,96.9,86,96.9,87.3z M94.7,68.6c-1.2,0-2.3-1-2.3-2.3v-1.2c1.3-1.5,2.8-2.8,4.5-3.7v4.9C96.9,67.6,95.9,68.6,94.7,68.6z
		 M58.4,56.8v17.1h22.9v10.8H58.4v19.2c-4.3-2.4-8-5.8-10.8-9.8V68.7V55.9V46h11H62h29.4c2.1,1.2,4.2,2.6,6,4.3l1.1,1l4.7-5.3h0.7
		v10.8H58.4z M91.6,66.4v5.3v2.1v5.9v2.1v4.5c-1.6-2.8-2.9-5.4-3.2-8.7c-0.1-1-0.1-2,0-3C88.8,71.3,90,69.1,91.6,66.4z M102.2,59.5
		v6.9c0,1.2-1,2.3-2.3,2.3c-1.2,0-2.2-1-2.2-2.3V61C99.1,60.3,100.7,59.8,102.2,59.5z M97.7,87.3c0-1.2,1-2.2,2.2-2.2
		c1.2,0,2.3,1,2.3,2.2v5.6c-1.6-0.3-3.1-0.8-4.5-1.5V87.3z M98,76.7c0-1.2,1-2.3,2.2-2.3h2.1h5.9h2.1c1.2,0,2.2,1,2.2,2.3
		c0,1.2-1,2.3-2.2,2.3h-2.1h-5.9h-2.1C99.1,79,98,78,98,76.7z M108.4,87.3c0-1.2,1-2.2,2.2-2.2c1.2,0,2.3,1,2.3,2.2v4.1
		c-1.4,0.7-2.9,1.2-4.5,1.5V87.3z M110.6,70.1c0.6,0,1.1-0.1,1.5-0.3c0.3,0.4,0.5,0.9,0.5,1.4c0,1.2-1,2.2-2.2,2.2h-2.1h-5.9h-2.1
		c-1.2,0-2.2-1-2.2-2.2c0-0.5,0.2-1,0.5-1.4c0.4,0.2,0.9,0.3,1.5,0.3c1,0,2-0.4,2.7-1.1c0.7,0.7,1.6,1.1,2.7,1.1c1,0,2-0.4,2.7-1.1
		C108.6,69.6,109.6,70.1,110.6,70.1z M108.4,66.4v-6.9c1.6,0.3,3.1,0.8,4.5,1.5v5.4c0,1.2-1,2.3-2.3,2.3
		C109.4,68.6,108.4,67.6,108.4,66.4z M107.6,66.4c0,1.2-1,2.3-2.3,2.3s-2.3-1-2.3-2.3v-7c0.7-0.1,1.5-0.2,2.3-0.2
		c0.8,0,1.5,0,2.2,0.1V66.4z M98.4,49.2c-6.2-5.6-14.4-9-23.4-9c-6.1,0-11.8,1.6-16.8,4.3h-12v10.9C42.3,61,40.1,67.7,40.1,75
		c0,19.2,15.6,34.7,34.9,34.7c8.9,0,17-3.3,23.1-8.7l0,0l6.9,7.9c-8,7-18.5,11.3-30,11.3c-25.1,0-45.4-20.2-45.4-45.2
		c0-24.9,20.3-45.2,45.4-45.2c11.7,0,22.3,4.4,30.4,11.6L98.4,49.2z M47.6,112.8c3.3,2.4,7,4.3,10.8,5.8v10.8H47.6V112.8z M75,135.8
		c-8.6,0-16.9-1.8-24.3-5h9.2v-7.7c4.8,1.5,9.9,2.3,15.1,2.3c28,0,50.7-22.6,50.7-50.4c0-27.8-22.7-50.4-50.7-50.4
		c-28,0-50.7,22.6-50.7,50.4c0,17.2,8.6,32.3,21.8,41.4v12.2C26.9,118.4,13.8,98.2,13.8,75c0-33.6,27.4-60.8,61.2-60.8
		s61.2,27.2,61.2,60.8C136.2,108.6,108.8,135.8,75,135.8z M113.7,75v-1.2v-0.9c0.3-0.5,0.4-1.1,0.4-1.8c0-0.2,0-0.5-0.1-0.7
		c0.2-0.2,0.3-0.4,0.6-0.6c0.4,0.2,0.8,0.2,1.3,0.2c0.5,0,0.9-0.1,1.3-0.2c0.6,0.4,0.9,1.1,0.9,1.8v2.1v5.9v2.1
		c0,0.8-0.4,1.5-1.1,1.9c-0.4-0.1-0.7-0.2-1.1-0.2c-0.4,0-0.8,0.1-1.1,0.2c-0.3-0.2-0.5-0.4-0.7-0.7c0-0.2,0.1-0.5,0.1-0.7
		c0-0.6-0.2-1.2-0.4-1.8v-0.9v-1.2c0.3-0.5,0.4-1.1,0.4-1.8C114.1,76.1,114,75.5,113.7,75z M113.7,66.4v-5c1.7,1,3.2,2.2,4.5,3.7
		v1.3c0,1.2-1,2.3-2.3,2.3C114.7,68.6,113.7,67.6,113.7,66.4z M115.9,85c1.2,0,2.2,1,2.2,2.2c-1.3,1.5-2.8,2.7-4.5,3.7v-3.7
		C113.7,86,114.7,85,115.9,85z M119.1,86.3v-4.5v-2.1v-5.9v-2.1v-5.3c1.6,2.7,2.9,4.9,3.2,8.2c0.1,1,0.1,2,0,3
		C122,80.9,120.7,83.5,119.1,86.3z"/>
	<path class="st2" d="M29.6,75c0,24.9,20.3,45.2,45.4,45.2c11.5,0,22-4.3,30-11.3l-6.9-7.9l0,0c-6.2,5.4-14.3,8.7-23.1,8.7
		c-19.3,0-34.9-15.6-34.9-34.7c0-7.3,2.2-14,6.1-19.6V44.5h12c5-2.7,10.7-4.3,16.8-4.3c9,0,17.2,3.4,23.4,9l7-7.8
		C97.3,34.2,86.7,29.8,75,29.8C49.9,29.8,29.6,50.1,29.6,75z"/>
	<path class="st2" d="M58.4,118.6c-3.9-1.5-7.5-3.4-10.8-5.8v16.6h10.8V118.6z"/>
	<path class="st2" d="M105.3,70.1c-1,0-2-0.4-2.7-1.1c-0.7,0.7-1.6,1.1-2.7,1.1c-0.5,0-1-0.1-1.5-0.3c-0.3,0.4-0.5,0.9-0.5,1.4
		c0,1.2,1,2.2,2.2,2.2h2.1h5.9h2.1c1.2,0,2.2-1,2.2-2.2c0-0.5-0.2-1-0.5-1.4c-0.5,0.2-1,0.3-1.5,0.3c-1,0-2-0.4-2.7-1.1
		C107.3,69.6,106.4,70.1,105.3,70.1z"/>
	<path class="st2" d="M75,14.2c-33.8,0-61.2,27.2-61.2,60.8c0,23.2,13.1,43.4,32.3,53.7v-12.2C33,107.3,24.3,92.2,24.3,75
		C24.3,47.2,47,24.6,75,24.6c28,0,50.7,22.6,50.7,50.4c0,27.8-22.7,50.4-50.7,50.4c-5.3,0-10.4-0.8-15.1-2.3v7.7h-9.2
		c7.5,3.2,15.7,5,24.3,5c33.8,0,61.2-27.2,61.2-60.8C136.2,41.4,108.8,14.2,75,14.2z"/>
	<path class="st2" d="M103.1,59.4v7c0,1.2,1,2.3,2.3,2.3s2.3-1,2.3-2.3v-7c-0.7-0.1-1.5-0.1-2.2-0.1
		C104.6,59.2,103.8,59.3,103.1,59.4z"/>
	<path class="st2" d="M112.9,66.4V61c-1.4-0.7-2.9-1.2-4.5-1.5v6.9c0,1.2,1,2.3,2.2,2.3C111.9,68.6,112.9,67.6,112.9,66.4z"/>
	<path class="st2" d="M122.2,74.5c-0.3-3.3-1.5-5.5-3.2-8.2v5.3v2.1v5.9v2.1v4.5c1.6-2.8,2.9-5.4,3.2-8.7
		C122.3,76.6,122.3,75.6,122.2,74.5z"/>
	<path class="st2" d="M113.7,90.9c1.7-1,3.2-2.2,4.5-3.7c0-1.2-1-2.2-2.2-2.2c-1.2,0-2.3,1-2.3,2.2V90.9z"/>
	<path class="st2" d="M113.7,79.7v0.9c0.3,0.5,0.4,1.1,0.4,1.8c0,0.2,0,0.5-0.1,0.7c0.2,0.3,0.4,0.5,0.7,0.7
		c0.4-0.1,0.7-0.2,1.1-0.2c0.4,0,0.8,0.1,1.1,0.2c0.7-0.4,1.1-1.1,1.1-1.9v-2.1v-5.9v-2.1c0-0.8-0.4-1.4-0.9-1.8
		c-0.4,0.2-0.8,0.2-1.3,0.2c-0.5,0-0.9-0.1-1.3-0.2c-0.2,0.2-0.4,0.4-0.6,0.6c0,0.2,0.1,0.5,0.1,0.7c0,0.6-0.2,1.2-0.4,1.8v0.9V75
		c0.3,0.5,0.4,1.1,0.4,1.8c0,0.6-0.2,1.2-0.4,1.8V79.7z"/>
	<path class="st2" d="M115.9,68.6c1.2,0,2.3-1,2.3-2.3v-1.3c-1.3-1.5-2.8-2.7-4.5-3.7v5C113.7,67.6,114.7,68.6,115.9,68.6z"/>
	<path class="st2" d="M88.4,77.6c0.3,3.3,1.6,5.9,3.2,8.7v-4.5v-2.1v-5.9v-2.1v-5.3c-1.6,2.7-2.9,4.9-3.2,8.2
		C88.4,75.6,88.4,76.6,88.4,77.6z"/>
	<path class="st2" d="M94.7,85c-1.2,0-2.2,1-2.2,2.1c1.3,1.5,2.8,2.8,4.5,3.7v-3.6C96.9,86,95.9,85,94.7,85z"/>
	<path class="st2" d="M96.9,61.4c-1.7,1-3.2,2.2-4.5,3.7v1.2c0,1.2,1,2.3,2.3,2.3c1.2,0,2.3-1,2.3-2.3V61.4z"/>
	<path class="st2" d="M96.9,73.8v-1.1c-0.2-0.5-0.3-1-0.3-1.5c0-0.2,0-0.4,0-0.6c-0.2-0.3-0.4-0.6-0.7-0.7c-0.4,0.2-0.8,0.2-1.3,0.2
		c-0.5,0-0.9-0.1-1.3-0.2c-0.6,0.4-0.9,1.1-0.9,1.8v2.1v5.9v2.1c0,0.8,0.4,1.5,1.1,1.9c0.4-0.1,0.7-0.2,1.1-0.2
		c0.4,0,0.8,0.1,1.1,0.2c0.3-0.2,0.6-0.5,0.8-0.8c0-0.2,0-0.4,0-0.6c0-0.5,0.1-1.1,0.3-1.5v-1.1v-1.4c-0.2-0.5-0.3-1-0.3-1.5
		c0-0.5,0.1-1.1,0.3-1.5V73.8z"/>
	<path class="st2" d="M103.9,46h-0.7l-4.7,5.3l-1.1-1c-1.9-1.7-3.9-3.1-6-4.3H62h-3.5h-11v9.9v12.9v25.4c2.8,4,6.5,7.4,10.8,9.8
		V84.8h22.9V73.9H58.4V56.8h45.5V46z"/>
	<path class="st2" d="M103.1,87.3V93c0.7,0.1,1.5,0.2,2.3,0.2c0.8,0,1.5-0.1,2.2-0.1v-5.7c0-1.2-1-2.2-2.3-2.2S103.1,86,103.1,87.3z
		"/>
	<path class="st2" d="M108.1,84.6c0.7-0.6,1.6-1,2.5-1c0.5,0,1,0.1,1.4,0.3c0.4-0.4,0.6-0.9,0.6-1.5c0-1.2-1-2.3-2.2-2.3l-2.1,0
		h-5.9h-2.1c-1.2,0-2.2,1-2.2,2.3c0,0.6,0.2,1.1,0.6,1.5c0.4-0.2,0.9-0.3,1.4-0.3c1,0,1.9,0.4,2.5,1h0.3c0.7-0.6,1.5-1,2.5-1
		c1,0,1.9,0.4,2.5,1H108.1z"/>
	<path class="st2" d="M100.3,79h2.1h5.9h2.1c1.2,0,2.2-1,2.2-2.3c0-1.2-1-2.3-2.2-2.3h-2.1h-5.9h-2.1c-1.2,0-2.2,1-2.2,2.3
		C98,78,99.1,79,100.3,79z"/>
	<path class="st2" d="M102.2,87.3c0-1.2-1-2.2-2.3-2.2c-1.2,0-2.2,1-2.2,2.2v4.1c1.4,0.7,2.9,1.2,4.5,1.5V87.3z"/>
	<path class="st2" d="M100,68.6c1.2,0,2.3-1,2.3-2.3v-6.9c-1.6,0.3-3.1,0.8-4.5,1.5v5.4C97.7,67.6,98.8,68.6,100,68.6z"/>
	<path class="st2" d="M112.9,87.3c0-1.2-1-2.2-2.3-2.2c-1.2,0-2.2,1-2.2,2.2v5.6c1.6-0.3,3.1-0.8,4.5-1.5V87.3z"/>
</g>
</svg>
